# xmcd
#
# Track frame offsets: 
#        150
#        16779
#        34183
#        62567
#        79353
#        96247
#        125089
#        152381
#        176245
#        205015
#        223753
#        243253
#        270104
#        289702
#        306752
#        323125
#        335510
#
# Disc length: 4788 seconds
#
# Revision: 0
# Processed by: cddbd v1.5.2PL0 Copyright (c) Steve Scherf et al.
# Submitted via: ExactAudioCopy v1.3
#
DISCID=ea12b211
DTITLE=Various Artist - Akella Presents - vol.135 - Black Pure Blues 
DTITLE=CD2
DYEAR=2018
DGENRE=Blues
TTITLE0=Chuck Beattie - Girl I Miss You
TTITLE1=Woody Garrett - Stop
TTITLE2=Robert Cray - I Love 2009
TTITLE3=Carvin Jones - Messin' With The Kid
TTITLE4=Grady Freeman - Play With Your Body
TTITLE5=Bobby 'Blue' Bland - Where Do I Go From Here
TTITLE6=Eddie Burks - Sugar Hills Blues
TTITLE7=James Armstrong - Early Grave
TTITLE8=Jerry 'Boogie' McCain - This Stuff Just Kills Me
TTITLE9=Smilin' Bobby and Hidden Charms - Cold Cold Feeling
TTITLE10=Pinetop Perkins - Big Fat Mama
TTITLE11=Mike Wheeler - Luther's Blues
TTITLE12=Little Willie Anderson - Looking For You Baby
TTITLE13=Lil' Ed And The Blues Imperials - You Burnt Me
TTITLE14=The Griswolds - Sad Sad Day
TTITLE15=Leo Welch - I Don't Know Her Name
TTITLE16=Mighty Sam Mcclain - Too Proud
EXTD=
EXTT0=
EXTT1=
EXTT2=
EXTT3=
EXTT4=
EXTT5=
EXTT6=
EXTT7=
EXTT8=
EXTT9=
EXTT10=
EXTT11=
EXTT12=
EXTT13=
EXTT14=
EXTT15=
EXTT16=
PLAYORDER=
